<?xml version="1.0" encoding="utf-8"?>
<!-- Generator: Adobe Illustrator 24.0.0, SVG Export Plug-In . SVG Version: 6.00 Build 0)  -->
<svg version="1.1" id="Capa_1" xmlns="http://www.w3.org/2000/svg" xmlns:xlink="http://www.w3.org/1999/xlink" x="0px" y="0px"
	 viewBox="0 0 261.2 262.6" style="enable-background:new 0 0 261.2 262.6;" xml:space="preserve">
<style type="text/css">
	.st0{fill:#5A6384;}
	.st1{fill:#445175;}
	.st2{fill:#FFB13B;}
	.st3{fill:#FF9500;}
	.st4{fill:#FF7045;}
	.st5{fill:#F45607;}
	.st6{fill:#1D1D1B;}
</style>
<g>
	<g>
		<path class="st0" d="M232.1,83.7v144.6c0,8.9-7.2,16.1-16.1,16.1h-168c-8.9,0-16.1-7.2-16.1-16.1V47.9c0-8.9,7.2-16.1,16.1-16.1
			h132.7c4.3,0,8.4,1.7,11.5,4.8l35.4,35.8C230.4,75.4,232.1,79.4,232.1,83.7z"/>
	</g>
	<g>
		<path class="st1" d="M232.1,83.7v144.6c0,8.9-7.2,16.1-16.1,16.1h-84V31.8h48.6c4.3,0,8.4,1.7,11.5,4.8l35.4,35.8
			C230.4,75.4,232.1,79.4,232.1,83.7z"/>
	</g>
	<g>
		<g>
			<path class="st2" d="M91.8,31.8v52.9c0,3.9,3.2,7.1,7.1,7.1h67c3.9,0,7.1-3.2,7.1-7.1V31.8H91.8z"/>
		</g>
		<g>
			<path class="st2" d="M204.2,148.3v96.1H60.6v-96.1c0-3.9,3.2-7.1,7.1-7.1h129.4C201,141.2,204.2,144.3,204.2,148.3z"/>
		</g>
	</g>
	<g>
		<g>
			<path class="st3" d="M165.9,91.9h-34v-60H173v52.9C173,88.7,169.8,91.9,165.9,91.9z"/>
		</g>
		<g>
			<path class="st3" d="M204.2,148.3v96.1h-72.3V141.2h65.2C201,141.2,204.2,144.3,204.2,148.3z"/>
		</g>
	</g>
	<g>
		<g>
			<rect x="115.5" y="31.8" class="st4" width="12.5" height="60"/>
		</g>
		<g>
			<path class="st4" d="M204.2,148.3v25.3H60.6v-25.3c0-3.9,3.2-7.1,7.1-7.1h129.4C201,141.2,204.2,144.3,204.2,148.3z"/>
		</g>
	</g>
	<g>
		<path class="st5" d="M204.2,148.3v25.3h-72.3v-32.4h65.2C201,141.2,204.2,144.3,204.2,148.3z"/>
	</g>
	<g>
		<path class="st4" d="M163,193.8c0,3.4-2.8,6.2-6.2,6.2h-49.7c-3.4,0-6.2-2.8-6.2-6.2c0-3.4,2.8-6.2,6.2-6.2h49.7
			C160.2,187.6,163,190.4,163,193.8z"/>
	</g>
	<g>
		<path class="st5" d="M163,193.8c0,3.4-2.8,6.2-6.2,6.2h-24.8v-12.5h24.8C160.2,187.6,163,190.4,163,193.8z"/>
	</g>
	<g>
		<path class="st6" d="M215.9,245h-168c-11.1,0-20-9-20-20.1V44.6c0-11.1,9-20.1,20-20.1h132.7c5.3,0,10.5,2.2,14.3,6l35.4,35.8
			c3.7,3.8,5.8,8.8,5.8,14.1v144.6C236,236,227,245,215.9,245z M47.9,32.4c-6.7,0-12.2,5.5-12.2,12.2v180.3
			c0,6.7,5.5,12.2,12.2,12.2h168c6.7,0,12.2-5.5,12.2-12.2V80.4c0-3.2-1.2-6.3-3.5-8.6L189.2,36c-2.3-2.3-5.4-3.6-8.6-3.6H47.9z"/>
	</g>
	<g>
		<g>
			<path class="st6" d="M164.3,92.5h-67c-6.1,0-11.1-5-11.1-11.1V24.6h89.1v56.9C175.4,87.5,170.4,92.5,164.3,92.5z M94.2,32.4v49
				c0,1.7,1.4,3.2,3.2,3.2h67c1.7,0,3.2-1.4,3.2-3.2v-49H94.2z"/>
		</g>
		<g>
			<path class="st6" d="M206.6,245H55.1V144.9c0-6.1,5-11.1,11.1-11.1h129.4c6.1,0,11.1,5,11.1,11.1V245z M63,237.1h135.8v-92.2
				c0-1.8-1.4-3.2-3.2-3.2H66.1c-1.7,0-3.2,1.4-3.2,3.2V237.1z"/>
		</g>
	</g>
</g>
</svg>
