<?xml version="1.0" encoding="utf-8"?>
<!-- Generator: Adobe Illustrator 24.0.0, SVG Export Plug-In . SVG Version: 6.00 Build 0)  -->
<svg version="1.1" id="Capa_1" xmlns="http://www.w3.org/2000/svg" xmlns:xlink="http://www.w3.org/1999/xlink" x="0px" y="0px"
	 viewBox="0 0 261.2 262.6" style="enable-background:new 0 0 261.2 262.6;" xml:space="preserve">
<style type="text/css">
	.st0{fill:#f59120;}
	.st1{fill:#f59120;}
	.st2{fill:#f59120;}
	.st3{fill:#f59120;}
	.st4{fill:#f59120;}
	.st5{fill:#f59120;}
	.st6{fill:#f59120;}
</style>
<g>
	<g>
		<path class="st0" d="M29,219.9l-4.7,9.2c-2,4-1.3,8.8,1.9,11.9c3.1,3.1,8,3.9,11.9,1.9l9.2-4.7L29,219.9z"/>
	</g>
	<g>
		<path class="st1" d="M180.8,44.1L223,86.2l-11.2,11.2l-42.2-42.2L180.8,44.1z"/>
	</g>
	<g>
		<path class="st2" d="M215.3,78.5l7.7,7.7l-11.2,11.2l-7.7-7.7L215.3,78.5z"/>
	</g>
	<g>
		<path class="st3" d="M61.4,205.7l-21.1-21.1L29,219.9l9.1,9.1l9.1,9.1l35.2-11.3L61.4,205.7z"/>
	</g>
	<g>
		<path class="st4" d="M223,86.3l-42.2-42.2l13.4-13.4c5.8-5.8,15.3-5.8,21.1,0l21.1,21.1c5.8,5.8,5.8,15.3,0,21.1L223,86.3z"/>
	</g>
	<g>
		<path class="st5" d="M236.4,51.8l-7.7-7.7c5.8,5.8,5.8,15.3,0,21.1l-13.4,13.4l7.7,7.7l13.4-13.4
			C242.2,67.1,242.2,57.7,236.4,51.8z"/>
	</g>
	<g>
		<path class="st4" d="M169.6,55.3L40.3,184.7L38.4,196c-0.4,2.7,1.9,5,4.6,4.6l5.9-1c1.3-0.2,2.6,0.2,3.5,1.1L183.7,69.4
			L169.6,55.3z"/>
	</g>
	<g>
		<path class="st5" d="M197.7,83.5L66.4,214.8c0.9,0.9,1.3,2.1,1.1,3.5l-1,5.9c-0.4,2.7,1.9,5,4.6,4.6l11.4-1.9L211.8,97.5
			L197.7,83.5z"/>
	</g>
	<g>
		<path class="st6" d="M183.7,69.4L52.3,200.7c0.9,0.9,1.3,2.1,1.1,3.5l-1,5.9c-0.4,2.7,1.9,5,4.6,4.6l5.9-1
			c1.3-0.2,2.6,0.2,3.5,1.1L197.7,83.5L183.7,69.4z"/>
	</g>
	<path d="M238.7,49.5l-21.1-21.1c-3.4-3.4-8-5.3-12.9-5.3s-9.4,1.9-12.9,5.3L100,120.3c-1.3,1.3-1.3,3.4,0,4.6s3.4,1.3,4.6,0
		L169.6,60l9.4,9.4L51.8,196.6c-1.1-0.4-2.3-0.5-3.4-0.3l-5.9,1c-0.3,0-0.5-0.1-0.6-0.2c-0.1-0.1-0.2-0.3-0.2-0.6l1.7-10.3
		l50.5-50.5c1.3-1.3,1.3-3.4,0-4.6c-1.3-1.3-3.4-1.3-4.6,0L38,182.3c-0.4,0.4-0.6,0.8-0.8,1.3c0,0,0,0,0,0l-11.2,35l-4.6,8.9
		c-2.7,5.2-1.7,11.6,2.5,15.7c2.6,2.6,6.1,4,9.6,4c2.1,0,4.2-0.5,6.2-1.5l8.9-4.6l35-11.2c0,0,0,0,0,0c0.5-0.2,0.9-0.4,1.3-0.8
		l79.8-79.8c1.3-1.3,1.3-3.4,0-4.6s-3.4-1.3-4.6,0l-79.1,79.1l-10.3,1.7c-0.3,0-0.5-0.1-0.6-0.2c-0.1-0.1-0.2-0.3-0.2-0.6l1-5.9
		c0.2-1.2,0.1-2.3-0.3-3.4L197.7,88.1l9.4,9.4l-36.3,36.3c-1.3,1.3-1.3,3.4,0,4.6c0.6,0.6,1.5,1,2.3,1c0.8,0,1.7-0.3,2.3-1
		l63.3-63.3C245.8,68.1,245.8,56.6,238.7,49.5L238.7,49.5z M43.5,203.8l5.9-1c0.3,0,0.5,0.1,0.6,0.2c0.1,0.1,0.2,0.3,0.2,0.6l-1,5.9
		c-0.4,2.3,0.4,4.7,2,6.3c1.7,1.7,4,2.4,6.3,2l5.9-1c0.3,0,0.5,0.1,0.6,0.2c0.1,0.1,0.2,0.3,0.2,0.6l-1,5.9c-0.3,2,0.2,3.9,1.3,5.5
		l-16.5,5.3L32.7,219l5.3-16.5C39.6,203.7,41.6,204.2,43.5,203.8L43.5,203.8z M36.6,239.9c-2.7,1.4-6,0.9-8.1-1.3
		c-2.1-2.1-2.7-5.4-1.3-8.1l2.6-5.2l11.9,11.9L36.6,239.9z M65.8,210.7c-1.1-0.4-2.3-0.5-3.4-0.3l-5.9,1c-0.3,0-0.5-0.1-0.6-0.2
		c-0.1-0.1-0.2-0.3-0.2-0.6l1-5.9c0.2-1.2,0.1-2.3-0.3-3.4L183.7,74l9.4,9.4L65.8,210.7z M174.2,55.3l6.6-6.6l37.5,37.5l-6.6,6.6
		L174.2,55.3z M234,70.6l-11,11l-37.5-37.5l11-11c4.5-4.5,11.9-4.5,16.4,0L234,54.2C238.6,58.7,238.6,66.1,234,70.6z"/>
</g>
</svg>
