<?xml version="1.0" encoding="utf-8"?>
<!-- Generator: Adobe Illustrator 24.0.0, SVG Export Plug-In . SVG Version: 6.00 Build 0)  -->
<svg version="1.1" id="Capa_1" xmlns="http://www.w3.org/2000/svg" xmlns:xlink="http://www.w3.org/1999/xlink" x="0px" y="0px"
	 viewBox="0 0 261.2 262.6" style="enable-background:new 0 0 261.2 262.6;" xml:space="preserve">
<style type="text/css">
	.st0{fill:#26457D;}
	.st1{fill:#E4FBEF;}
	.st2{fill:#D3EFFB;}
	.st3{fill:#F1D59D;}
	.st4{fill:#6289FA;}
	.st5{fill:#92B4E0;}
</style>
<g>
	<g>
		<path class="st0" d="M29.9,215.2l-4.7,9.1c-2,3.9-1.3,8.7,1.9,11.8c3.1,3.1,7.9,3.9,11.8,1.9l9.1-4.7L29.9,215.2z"/>
	</g>
	<g>
		<path class="st1" d="M180.6,40.8l41.8,41.8l-11.2,11.2l-41.8-41.8L180.6,40.8z"/>
	</g>
	<g>
		<path class="st2" d="M214.8,74.9l7.7,7.7l-11.2,11.2l-7.7-7.7L214.8,74.9z"/>
	</g>
	<g>
		<path class="st3" d="M62,201.2l-20.9-20.9l-11.2,35l9.1,9.1l9.1,9.1l35-11.2L62,201.2z"/>
	</g>
	<g>
		<path class="st4" d="M222.5,82.6l-41.9-41.9l13.3-13.3c5.8-5.8,15.1-5.8,20.9,0l20.9,20.9c5.8,5.8,5.8,15.1,0,20.9L222.5,82.6z"/>
	</g>
	<g>
		<path class="st0" d="M235.7,48.4l-7.7-7.7c5.8,5.8,5.8,15.1,0,20.9L214.8,75l7.7,7.7l13.3-13.3C241.5,63.6,241.5,54.2,235.7,48.4z
			"/>
	</g>
	<g>
		<path class="st4" d="M169.4,51.9L41.1,180.3l-1.9,11.3c-0.4,2.7,1.9,5,4.5,4.5l5.8-1c1.3-0.2,2.6,0.2,3.4,1.1L183.4,65.9
			L169.4,51.9z"/>
	</g>
	<g>
		<path class="st0" d="M197.3,79.8L67,210.2c0.9,0.9,1.3,2.1,1.1,3.4l-1,5.8c-0.4,2.7,1.9,5,4.5,4.5l11.3-1.9L211.3,93.8L197.3,79.8
			z"/>
	</g>
	<g>
		<path class="st5" d="M183.4,65.9L53,196.2c0.9,0.9,1.3,2.1,1.1,3.4l-1,5.8c-0.4,2.7,1.9,5,4.5,4.5l5.8-1c1.3-0.2,2.6,0.2,3.4,1.1
			L197.3,79.8L183.4,65.9z"/>
	</g>
	<path d="M238,46.1l-20.9-20.9c-3.4-3.4-7.9-5.3-12.8-5.3s-9.4,1.9-12.8,5.3l-91.1,91.1c-1.3,1.3-1.3,3.3,0,4.6
		c1.3,1.3,3.3,1.3,4.6,0l64.4-64.4l9.3,9.3L52.5,192.2c-1.1-0.4-2.3-0.5-3.4-0.3l-5.8,1c-0.3,0-0.5-0.1-0.6-0.2
		c-0.1-0.1-0.2-0.3-0.2-0.6l1.7-10.3l50.1-50.1c1.3-1.3,1.3-3.3,0-4.6c-1.3-1.3-3.3-1.3-4.6,0L38.8,178c-0.4,0.4-0.6,0.8-0.8,1.3
		c0,0,0,0,0,0L26.8,214l-4.5,8.9c-2.7,5.2-1.7,11.5,2.5,15.6c2.6,2.6,6,3.9,9.5,3.9c2.1,0,4.2-0.5,6.1-1.5l8.9-4.5L84,225.2
		c0,0,0,0,0,0c0.5-0.2,0.9-0.4,1.3-0.8l79.2-79.2c1.3-1.3,1.3-3.3,0-4.6c-1.3-1.3-3.3-1.3-4.6,0l-78.5,78.5l-10.3,1.7
		c-0.3,0-0.5-0.1-0.6-0.2c-0.1-0.1-0.2-0.3-0.2-0.6l1-5.8c0.2-1.2,0.1-2.3-0.3-3.4L197.3,84.4l9.3,9.3l-36.1,36.1
		c-1.3,1.3-1.3,3.3,0,4.6c0.6,0.6,1.5,1,2.3,1s1.7-0.3,2.3-1L238,71.7C245.1,64.6,245.1,53.2,238,46.1L238,46.1z M44.3,199.3l5.8-1
		c0.3,0,0.5,0.1,0.6,0.2c0.1,0.1,0.2,0.3,0.2,0.6l-1,5.8c-0.4,2.3,0.4,4.6,2,6.3c1.6,1.6,4,2.4,6.3,2l5.8-1c0.3,0,0.5,0.1,0.6,0.2
		c0.1,0.1,0.2,0.3,0.2,0.6l-1,5.8c-0.3,1.9,0.2,3.9,1.3,5.5l-16.3,5.3l-15.3-15.3l5.3-16.3C40.4,199.1,42.4,199.6,44.3,199.3
		L44.3,199.3z M37.4,235.1c-2.7,1.4-5.9,0.9-8-1.3c-2.1-2.1-2.6-5.4-1.3-8l2.6-5.1l11.8,11.8L37.4,235.1z M66.4,206.1
		c-1.1-0.4-2.3-0.5-3.4-0.3l-5.8,1c-0.3,0-0.5-0.1-0.6-0.2c-0.1-0.1-0.2-0.3-0.2-0.6l1-5.8c0.2-1.2,0.1-2.3-0.3-3.4L183.4,70.5
		l9.3,9.3L66.4,206.1z M174.1,51.9l6.6-6.6l37.2,37.2l-6.6,6.6L174.1,51.9z M233.4,67.1L222.5,78l-37.2-37.2l10.9-10.9
		c4.5-4.5,11.8-4.5,16.3,0l20.9,20.9C237.9,55.2,237.9,62.6,233.4,67.1z"/>
</g>
</svg>
