<?xml version="1.0" encoding="utf-8"?>
<!-- Generator: Adobe Illustrator 24.0.0, SVG Export Plug-In . SVG Version: 6.00 Build 0)  -->
<svg version="1.1" id="Capa_1" xmlns="http://www.w3.org/2000/svg" xmlns:xlink="http://www.w3.org/1999/xlink" x="0px" y="0px"
	 viewBox="0 0 261.2 262.6" style="enable-background:new 0 0 261.2 262.6;" xml:space="preserve">
<style type="text/css">
	.st0{fill:#26457D;}
	.st1{fill:#E4FBEF;}
	.st2{fill:#D3EFFB;}
	.st3{fill:#F1D59D;}
	.st4{fill:#6289FA;}
	.st5{fill:#92B4E0;}
	.st6{fill:none;stroke:#F96F12;stroke-width:8;stroke-miterlimit:10;}
</style>
<g>
	<g>
		<path class="st0" d="M40.8,208.8l-4.3,8.3c-1.8,3.5-1.2,7.9,1.7,10.7c2.8,2.8,7.2,3.5,10.7,1.7l8.3-4.3L40.8,208.8z"/>
	</g>
	<g>
		<path class="st1" d="M177.7,50.4l38,38l-10.2,10.2l-38-38L177.7,50.4z"/>
	</g>
	<g>
		<path class="st2" d="M208.8,81.4l7,7l-10.2,10.2l-7-7L208.8,81.4z"/>
	</g>
	<g>
		<path class="st3" d="M70,196.1l-19-19l-10.2,31.8l8.3,8.3l8.3,8.3l31.8-10.2L70,196.1z"/>
	</g>
	<g>
		<path class="st4" d="M215.8,88.4l-38.1-38.1l12.1-12.1c5.3-5.3,13.7-5.3,19,0l19,19c5.3,5.3,5.3,13.7,0,19L215.8,88.4z"/>
	</g>
	<g>
		<path class="st0" d="M227.8,57.3l-7-7c5.3,5.3,5.3,13.7,0,19l-12,12.2l7,7l12.1-12.1C233,71.1,233,62.6,227.8,57.3z"/>
	</g>
	<g>
		<path class="st4" d="M167.5,60.5L51,177.1l-1.7,10.3c-0.4,2.5,1.7,4.5,4.1,4.1l5.3-0.9c1.2-0.2,2.4,0.2,3.1,1L180.2,73.2
			L167.5,60.5z"/>
	</g>
	<g>
		<path class="st0" d="M192.9,85.8L74.5,204.3c0.8,0.8,1.2,1.9,1,3.1l-0.9,5.3c-0.4,2.5,1.7,4.5,4.1,4.1l10.3-1.7L205.6,98.6
			L192.9,85.8z"/>
	</g>
	<g>
		<path class="st5" d="M180.2,73.2L61.8,191.6c0.8,0.8,1.2,1.9,1,3.1l-0.9,5.3c-0.4,2.5,1.7,4.5,4.1,4.1l5.3-0.9
			c1.2-0.2,2.4,0.2,3.1,1L192.9,85.8L180.2,73.2z"/>
	</g>
	<path d="M229.8,55.2l-19-19c-3.1-3.1-7.2-4.8-11.6-4.8c-4.5,0-8.5,1.7-11.6,4.8L104.8,119c-1.2,1.2-1.2,3,0,4.2
		c1.2,1.2,3,1.2,4.2,0l58.5-58.5l8.4,8.4L61.3,187.9c-1-0.4-2.1-0.5-3.1-0.3l-5.3,0.9c-0.3,0-0.5-0.1-0.5-0.2
		c-0.1-0.1-0.2-0.3-0.2-0.5l1.5-9.4L99.3,133c1.2-1.2,1.2-3,0-4.2c-1.2-1.2-3-1.2-4.2,0L48.9,175c-0.4,0.4-0.5,0.7-0.7,1.2l0,0
		L38,207.8l-4.1,8.1c-2.5,4.7-1.5,10.4,2.3,14.2c2.4,2.4,5.5,3.5,8.6,3.5c1.9,0,3.8-0.5,5.5-1.4l8.1-4.1l31.5-10.2l0,0
		c0.5-0.2,0.8-0.4,1.2-0.7l71.9-71.9c1.2-1.2,1.2-3,0-4.2c-1.2-1.2-3-1.2-4.2,0l-71.3,71.3l-9.4,1.5c-0.3,0-0.5-0.1-0.5-0.2
		c-0.1-0.1-0.2-0.3-0.2-0.5l0.9-5.3c0.2-1.1,0.1-2.1-0.3-3.1L192.9,90l8.4,8.4l-32.8,32.8c-1.2,1.2-1.2,3,0,4.2
		c0.5,0.5,1.4,0.9,2.1,0.9c0.7,0,1.5-0.3,2.1-0.9l57.1-57C236.3,72,236.3,61.7,229.8,55.2L229.8,55.2z M53.9,194.4l5.3-0.9
		c0.3,0,0.5,0.1,0.5,0.2c0.1,0.1,0.2,0.3,0.2,0.5l-0.9,5.3c-0.4,2.1,0.4,4.2,1.8,5.7c1.5,1.5,3.6,2.2,5.7,1.8l5.3-0.9
		c0.3,0,0.5,0.1,0.5,0.2c0.1,0.1,0.2,0.3,0.2,0.5l-0.9,5.3c-0.3,1.7,0.2,3.5,1.2,5L58,221.9L44.1,208l4.8-14.8
		C50.3,194.2,52.2,194.7,53.9,194.4L53.9,194.4z M47.6,226.9c-2.5,1.3-5.4,0.8-7.3-1.2c-1.9-1.9-2.4-4.9-1.2-7.3l2.4-4.6l10.7,10.7
		L47.6,226.9z M74,200.6c-1-0.4-2.1-0.5-3.1-0.3l-5.3,0.9c-0.3,0-0.5-0.1-0.5-0.2c-0.1-0.1-0.2-0.3-0.2-0.5l0.9-5.3
		c0.2-1.1,0.1-2.1-0.3-3.1L180.2,77.4l8.4,8.4L74,200.6z M171.8,60.5l6-6l33.8,33.8l-6,6L171.8,60.5z M225.7,74.3l-9.9,9.9L182,50.4
		l9.9-9.9c4.1-4.1,10.7-4.1,14.8,0l19,19C229.8,63.5,229.8,70.2,225.7,74.3z"/>
</g>
<path class="st6" d="M229.2,250.7H35.4c-11.7,0-21.1-9.5-21.1-21.1V35.7c0-11.7,9.5-21.1,21.1-21.1h193.8c11.7,0,21.1,9.5,21.1,21.1
	v193.8C250.3,241.2,240.9,250.7,229.2,250.7z"/>
</svg>
