<?xml version="1.0" encoding="utf-8"?>
<!-- Generator: Adobe Illustrator 24.0.0, SVG Export Plug-In . SVG Version: 6.00 Build 0)  -->
<svg version="1.1" id="Capa_1" xmlns="http://www.w3.org/2000/svg" xmlns:xlink="http://www.w3.org/1999/xlink" x="0px" y="0px"
	 viewBox="0 0 261.2 262.6" style="enable-background:new 0 0 261.2 262.6;" xml:space="preserve">
<style type="text/css">
	.st0{fill:none;stroke:#F96F12;stroke-width:8;stroke-miterlimit:10;}
	.st1{fill:#6289FA;}
	.st2{fill:#FCC89D;}
</style>
<path class="st0" d="M229.2,250.7H35.4c-11.7,0-21.1-9.5-21.1-21.1V35.7c0-11.7,9.5-21.1,21.1-21.1h193.8c11.7,0,21.1,9.5,21.1,21.1
	v193.8C250.3,241.2,240.9,250.7,229.2,250.7z"/>
<path class="st1" d="M174.5,73.9l38.4,48.8l20.9-18l-35.5-46L174.5,73.9z"/>
<path class="st1" d="M93.4,73.9l-42.2,51.4l-20.9-18l39.2-48.5L93.4,73.9z"/>
<path class="st2" d="M212.9,122.7l-38.4-48.8h-31.1l-24.4,7l-25.7-7.1l-42.2,51.4l20.9,28.1l-2.2,2.2c-4.1,4.1-4.1,10.7,0,14.9
	c3.6,3.6,9,4,13.1,1.4v0.4c-4.1,4.1-4.1,10.7,0,14.9c4.1,4.1,10.7,4.1,14.9,0.1l0,0c-4.1,4.1-4.1,10.7,0,14.9
	c4.1,4.1,10.7,4.1,14.9,0l2.1-2.1v0.2c-4.1,4.1-4.1,10.7,0,14.9c4.1,4.1,10.7,4.1,14.9,0l4.9-4.9c0.5-0.5,1.3-1.5,2-2.8
	c-0.5,1-1.2,1.9-2,2.8l0,0l4,3.2c4.1,4.1,10.7,4.1,14.9,0c4.1-4.1,4.1-10.7,0-14.9l0,0c4.1,4.1,10.7,4.1,14.9,0
	c4.1-4.1,4.1-10.7,0-14.9l0,0c4.1,4.1,10.7,4.1,14.9,0c4.1-4.1,4.1-10.7,0-14.9l0,0c4.1,4.1,10.7,4.1,14.9,0
	c4.1-4.1,4.1-10.7,0-14.9L212.9,122.7z"/>
<path d="M237.1,97.2l-35.5-46c-1.3-1.7-3.7-2.1-5.6-1l-22.8,14.6h-29.8c-0.4,0-0.8,0.1-1.2,0.2l-23.2,6.6l-24-6.5L71.7,50.2
	c-1.8-1.2-4.1-0.7-5.5,0.9L27,99.6c-1.4,1.7-1.2,4.3,0.5,5.7l20.6,17.7l18.4,24.9c-5.4,5.7-5.3,14.8,0.4,20.4
	c2.5,2.5,5.6,3.9,8.9,4.2c-0.1,0.7-0.2,1.5-0.2,2.2c0,3.9,1.5,7.6,4.3,10.4s6.4,4.3,10.4,4.3c0.1,0,0.1,0,0.2,0c0,0.1,0,0.2,0,0.3
	c0,3.9,1.5,7.6,4.3,10.4s6.4,4.3,10.4,4.3c0.8,0,1.5-0.1,2.3-0.2c0.4,3.2,1.7,6.4,4.2,9c2.9,2.9,6.6,4.3,10.4,4.3
	c3.8,0,7.5-1.4,10.4-4.3l2.2-2.2l1,0.7c2.9,2.8,6.5,4.1,10.2,4.1c3.8,0,7.5-1.4,10.4-4.3c3-3,4.4-6.8,4.3-10.6
	c3.9,0.1,7.7-1.3,10.6-4.3c3-3,4.4-6.8,4.3-10.6c4,0.1,7.8-1.4,10.6-4.3c3-3,4.4-6.8,4.3-10.6c3.9,0.1,7.7-1.3,10.6-4.3
	c5-5,5.6-12.7,2-18.4l13.4-28.2l20.2-17.5C238.2,101.5,238.5,99,237.1,97.2z M70.4,59.1l16.7,10.7l-36.5,44.5L36,101.7L70.4,59.1z
	 M72.8,153.5l5.1-5.1c0.2-0.2,0.4-0.3,0.4-0.4c1-0.8,2.1-1.3,3.5-1.4h0.1c0.2,0,0.4,0,0.5,0c1.7,0,3.3,0.7,4.6,2
	c2.3,2.5,2.2,6.5-0.3,9l-4.9,4.9c-2.5,2.5-6.5,2.5-9,0C70.3,159.9,70.3,155.9,72.8,153.5z M85.8,179.3c-1.2-1.2-1.9-2.8-1.9-4.5
	s0.6-3.3,1.9-4.5l9.9-9.9c1.9-1.9,4.8-2.4,7.3-1.3c2.5,1.2,3.9,3.9,3.5,6.5c-0.2,1.4-0.9,2.8-1.9,3.9l-9.7,9.7
	c-1.2,1.2-2.8,1.9-4.5,1.9C88.7,181.2,87,180.5,85.8,179.3z M100.7,194.2c-1.2-1.2-1.9-2.8-1.9-4.5s0.6-3.3,1.9-4.5l9.9-9.9
	c2-2,5.3-2.4,7.7-1c2.2,1.3,3.4,3.9,3,6.4c-0.2,1.4-0.9,2.8-1.9,3.8l-9.7,9.7c-1.2,1.2-2.8,1.9-4.5,1.9S101.8,195.5,100.7,194.2z
	 M117.5,207.3c-2.5-2.5-2.5-6.5,0-9l5.1-5.1c0.2-0.2,0.4-0.3,0.4-0.4l0,0c0.8-0.6,1.8-1.1,2.9-1.3h0.1c0.2,0,0.4-0.1,0.5-0.1
	c0.1,0,0.2,0,0.2,0c0.2,0,0.3,0,0.4,0c1.7,0,3.3,0.7,4.6,2c0.2,0.2,0.3,0.4,0.4,0.4c1.9,2.5,1.6,6.2-0.7,8.6l-4.9,4.9
	C124,209.8,120,209.8,117.5,207.3z M195,161c-2.5,2.5-6.5,2.5-9,0c-0.1-0.1-0.2-0.2-0.3-0.3l-26.7-27c-1.6-1.6-4.2-1.6-5.9,0
	c-1.6,1.6-1.6,4.2,0,5.9l27,27.3l0,0c2.5,2.5,2.5,6.5,0,9c-1.2,1.2-2.8,1.9-4.5,1.9s-3.3-0.6-4.5-1.9l-18.1-18.3
	c-1.6-1.6-4.2-1.6-5.9,0c-1.6,1.6-1.6,4.2,0,5.9l17.8,18c0.1,0.1,0.2,0.2,0.3,0.4c2.5,2.5,2.5,6.5,0,9c-2.5,2.5-6.5,2.5-9,0
	l-9.9-9.9c-1.6-1.6-4.2-1.6-5.9,0c-1.6,1.6-1.6,4.2,0,5.9l9.6,9.7c0.1,0.1,0.2,0.2,0.3,0.4c2.5,2.5,2.5,6.5,0,9
	c-2.5,2.5-6.5,2.5-9,0c-0.3-0.3-0.6-0.5-1-0.7c-0.3-0.2-0.4-0.4-0.2-0.7c0.2-0.4,0.4-0.6,0.4-1c0.2-0.4,0.3-0.8,0.4-1.2
	c0.6-2.1,0.8-4.3,0.5-6.4c-0.5-4.1-2.8-7.8-6.2-10.1c-1.9-1.3-3.9-2.1-6.2-2.4c1.1-4.7-0.2-9.9-3.6-13.3c-2.8-2.9-6.4-4.6-10.5-4.6
	c-0.2,0-0.3,0-0.4,0c0.1-3.9-1.3-7.6-3.9-10.4c-2.8-2.9-6.4-4.6-10.5-4.6c-1.2,0-2.4,0.1-3.6,0.4c-0.5-3.4-2.2-6.6-4.8-8.9
	s-5.9-3.5-9.4-3.6c-3.7-0.1-7.3,1.3-10,3.8l-16-21.7L94.7,74l12.3,3.3l-16,28.2c-2,3.4-2.4,7.3-1.3,11.2c1.1,3.8,3.5,6.9,6.9,8.9
	c0.2,0.1,0.4,0.3,0.6,0.4c0,0,0,0,0.1,0c0.5,0.3,1.2,0.5,1.8,0.7c2.8,1,5.8,1.1,8.7,0.3c3.8-1.1,6.9-3.5,8.9-6.9l10.4-18.4l18.5,1.3
	l49.4,49.4C197.5,154.5,197.5,158.5,195,161z M196.7,141.9l-46.4-46.4c-0.1-0.1-0.2-0.2-0.3-0.3c-0.6-0.5-1.5-0.9-2.3-1L125,92.7
	c-1.6-0.1-3.1,0.7-3.9,2.1l-11.6,20.6c-0.8,1.5-2.2,2.5-3.9,3c-1.6,0.4-3.4,0.3-4.8-0.6c-1.5-0.8-2.5-2.2-3-3.9
	c-0.4-1.6-0.3-3.4,0.6-4.8L114,81.5l6.4-1.8h0.1l23.6-6.8h28.5l35.6,45.2L196.7,141.9z M213.5,111.8L180.6,70l16.8-10.7l30.7,39.9
	L213.5,111.8z"/>
</svg>
