<?xml version="1.0" encoding="utf-8"?>
<!-- Generator: Adobe Illustrator 24.0.0, SVG Export Plug-In . SVG Version: 6.00 Build 0)  -->
<svg version="1.1" id="Capa_1" xmlns="http://www.w3.org/2000/svg" xmlns:xlink="http://www.w3.org/1999/xlink" x="0px" y="0px"
	 viewBox="0 0 261.2 262.6" style="enable-background:new 0 0 261.2 262.6;" xml:space="preserve">
<style type="text/css">
	.st0{fill:#6289FA;}
	.st1{fill:#FCC89D;}
</style>
<path class="st0" d="M177.4,69.2l42.9,54.5l23.3-20.1L204,52.2L177.4,69.2z"/>
<path class="st0" d="M86.8,69.2l-47.1,57.4l-23.3-20.1l43.8-54.2L86.8,69.2z"/>
<path class="st1" d="M220.3,123.7l-42.9-54.5h-34.7L115.5,77l-28.7-7.9l-47.1,57.4l23.3,31.4l-2.5,2.5c-4.6,4.6-4.6,12,0,16.6
	c4,4,10,4.5,14.6,1.6l0,0.5c-4.6,4.6-4.6,12,0,16.6c4.6,4.6,12,4.6,16.6,0.1l0,0c-4.6,4.6-4.6,12,0,16.6c4.6,4.6,12,4.6,16.6,0
	l2.3-2.3l0,0.2c-4.6,4.6-4.6,12,0,16.6c4.6,4.6,12,4.6,16.6,0l5.5-5.5c0.6-0.6,1.4-1.7,2.2-3.1c-0.6,1.1-1.3,2.1-2.2,3.1l0,0
	l4.5,3.6c4.6,4.6,12,4.6,16.6,0c4.6-4.6,4.6-12,0-16.6l0,0c4.6,4.6,12,4.6,16.6,0c4.6-4.6,4.6-12,0-16.6l0,0c4.6,4.6,12,4.6,16.6,0
	c4.6-4.6,4.6-12,0-16.6l0,0c4.6,4.6,12,4.6,16.6,0c4.6-4.6,4.6-12,0-16.6L220.3,123.7z"/>
<path d="M247.3,100.8l-39.6-51.4c-1.5-1.9-4.1-2.4-6.2-1.1L176,64.6h-33.3c-0.4,0-0.9,0.1-1.3,0.2l-25.9,7.4l-26.8-7.3L62.6,48.3
	c-2-1.3-4.6-0.8-6.1,1l-43.8,54.2c-1.6,1.9-1.3,4.8,0.6,6.4l23,19.8l20.6,27.8c-6,6.4-5.9,16.5,0.4,22.8c2.8,2.8,6.3,4.3,9.9,4.7
	c-0.1,0.8-0.2,1.7-0.2,2.5c0,4.4,1.7,8.5,4.8,11.6c3.1,3.1,7.2,4.8,11.6,4.8c0.1,0,0.1,0,0.2,0c0,0.1,0,0.2,0,0.3
	c0,4.4,1.7,8.5,4.8,11.6c3.1,3.1,7.2,4.8,11.6,4.8c0.9,0,1.7-0.1,2.6-0.2c0.4,3.6,1.9,7.2,4.7,10c3.2,3.2,7.4,4.8,11.6,4.8
	c4.2,0,8.4-1.6,11.6-4.8l2.5-2.5l1.1,0.8c3.2,3.1,7.3,4.6,11.4,4.6c4.2,0,8.4-1.6,11.6-4.8c3.3-3.3,4.9-7.6,4.8-11.8
	c4.3,0.1,8.6-1.5,11.8-4.8c3.3-3.3,4.9-7.6,4.8-11.8c4.5,0.1,8.7-1.6,11.8-4.8c3.3-3.3,4.9-7.6,4.8-11.8c4.3,0.1,8.6-1.5,11.8-4.8
	c5.6-5.6,6.3-14.2,2.2-20.5l15-31.5l22.6-19.5C248.5,105.6,248.8,102.8,247.3,100.8z M61.1,58.3l18.7,11.9l-40.8,49.7l-16.3-14.1
	L61.1,58.3z M63.8,163.7l5.7-5.7c0.2-0.2,0.4-0.3,0.5-0.5c1.1-0.9,2.4-1.4,3.9-1.6c0,0,0.1,0,0.1,0c0.2,0,0.4,0,0.6,0
	c1.9,0,3.7,0.8,5.1,2.2c2.6,2.8,2.5,7.3-0.3,10.1l-5.5,5.5c-2.8,2.8-7.3,2.8-10.1,0C61,170.9,61,166.4,63.8,163.7z M78.3,192.5
	c-1.3-1.3-2.1-3.1-2.1-5s0.7-3.7,2.1-5l11-11c2.1-2.1,5.4-2.7,8.1-1.4c2.8,1.3,4.3,4.3,3.9,7.3c-0.2,1.6-1,3.1-2.1,4.3l-10.8,10.8
	c-1.3,1.3-3.1,2.1-5,2.1S79.7,193.9,78.3,192.5z M94.9,209.2c-1.3-1.3-2.1-3.1-2.1-5s0.7-3.7,2.1-5l11-11c2.2-2.2,5.9-2.7,8.6-1.1
	c2.5,1.5,3.8,4.3,3.4,7.2c-0.2,1.6-1,3.1-2.1,4.2l-10.8,10.8c-1.3,1.3-3.1,2.1-5,2.1S96.2,210.6,94.9,209.2z M113.7,223.8
	c-2.8-2.8-2.8-7.3,0-10.1l5.7-5.7c0.2-0.2,0.4-0.3,0.5-0.5c0,0,0,0,0,0c0.9-0.7,2-1.2,3.2-1.5c0,0,0.1,0,0.1,0
	c0.2,0,0.4-0.1,0.6-0.1c0.1,0,0.2,0,0.2,0c0.2,0,0.3,0,0.5,0c1.9,0,3.7,0.8,5.1,2.2c0.2,0.2,0.3,0.4,0.5,0.5
	c2.1,2.8,1.8,6.9-0.8,9.6l-5.5,5.5C121,226.6,116.5,226.6,113.7,223.8z M200.3,172.1c-2.8,2.8-7.3,2.8-10.1,0
	c-0.1-0.1-0.2-0.2-0.3-0.3l-29.8-30.1c-1.8-1.8-4.7-1.8-6.6,0c-1.8,1.8-1.8,4.7,0,6.6l30.2,30.5c0,0,0,0,0,0c2.8,2.8,2.8,7.3,0,10.1
	c-1.3,1.3-3.1,2.1-5,2.1c-1.9,0-3.7-0.7-5-2.1l-20.2-20.4c-1.8-1.8-4.7-1.8-6.6,0c-1.8,1.8-1.8,4.7,0,6.6l19.9,20.1
	c0.1,0.1,0.2,0.2,0.3,0.4c2.8,2.8,2.8,7.3,0,10.1c-2.8,2.8-7.3,2.8-10.1,0l-11-11.1c-1.8-1.8-4.7-1.8-6.6,0c-1.8,1.8-1.8,4.7,0,6.6
	l10.7,10.8c0.1,0.1,0.2,0.2,0.3,0.4c2.8,2.8,2.8,7.3,0,10.1c-2.8,2.8-7.3,2.8-10.1,0c-0.3-0.3-0.7-0.6-1.1-0.8
	c-0.3-0.2-0.4-0.4-0.2-0.8c0.2-0.4,0.4-0.7,0.5-1.1c0.2-0.4,0.3-0.9,0.4-1.3c0.7-2.3,0.9-4.8,0.6-7.1c-0.6-4.6-3.1-8.7-6.9-11.3
	c-2.1-1.4-4.4-2.3-6.9-2.7c1.2-5.3-0.2-11-4-14.9c-3.1-3.2-7.2-5.1-11.7-5.1c-0.2,0-0.3,0-0.5,0c0.1-4.3-1.4-8.5-4.4-11.6
	c-3.1-3.2-7.2-5.1-11.7-5.1c-1.3,0-2.7,0.1-4,0.4c-0.6-3.8-2.5-7.4-5.4-9.9c-2.9-2.5-6.6-3.9-10.5-4c-4.1-0.1-8.1,1.5-11.2,4.2
	l-17.9-24.2l42.9-52.3l13.7,3.7l-17.9,31.5c-2.2,3.8-2.7,8.2-1.5,12.5c1.2,4.2,3.9,7.7,7.7,9.9c0.2,0.1,0.5,0.3,0.7,0.4
	c0,0,0,0,0.1,0c0.6,0.3,1.3,0.6,2,0.8c3.1,1.1,6.5,1.2,9.7,0.3c4.2-1.2,7.7-3.9,9.9-7.7l11.6-20.5l20.7,1.5l55.2,55.2
	C203.1,164.8,203.1,169.3,200.3,172.1z M202.2,150.8L150.4,99c-0.1-0.1-0.2-0.2-0.3-0.3c-0.7-0.6-1.7-1-2.6-1.1l-25.4-1.8
	c-1.8-0.1-3.5,0.8-4.4,2.3l-13,23c-0.9,1.7-2.5,2.8-4.3,3.3c-1.8,0.5-3.8,0.3-5.4-0.7c-1.7-0.9-2.8-2.5-3.3-4.3
	c-0.5-1.8-0.3-3.8,0.7-5.4l17.4-30.7l7.1-2c0,0,0.1,0,0.1,0l26.3-7.6h31.8l39.7,50.5L202.2,150.8z M220.9,117.1l-36.7-46.7
	l18.8-11.9l34.3,44.6L220.9,117.1z"/>
</svg>
