<?xml version="1.0" encoding="utf-8"?>
<!-- Generator: Adobe Illustrator 24.0.0, SVG Export Plug-In . SVG Version: 6.00 Build 0)  -->
<svg version="1.1" id="Capa_1" xmlns="http://www.w3.org/2000/svg" xmlns:xlink="http://www.w3.org/1999/xlink" x="0px" y="0px"
	 viewBox="0 0 261.2 262.6" style="enable-background:new 0 0 261.2 262.6;" xml:space="preserve">
<style type="text/css">
	.st0{fill:#6289FA;}
	.st1{fill:#E41B19;}
	.st2{fill:#37C609;}
	.st3{fill:#FF9500;}
	.st4{fill:#1D1D1B;}
</style>
<g>
	<path class="st0" d="M196.8,238.6H68.4c-20.4,0-36.9-16.5-36.9-36.9V60.9C31.5,40.5,48,24,68.4,24h149.5c8.7,0,15.7,7,15.7,15.7
		v161.9C233.7,222.1,217.2,238.6,196.8,238.6z"/>
</g>
<g>
	<path class="st1" d="M132.7,238.6H47c-8.5,0-15.5-6.9-15.5-15.5V39.5C31.5,30.9,38.4,24,47,24h85.8"/>
</g>
<g>
	<path class="st2" d="M233.7,128.3v94.8c0,8.5-6.9,15.5-15.5,15.5H47c-8.5,0-15.5-6.9-15.5-15.5v-94.8"/>
</g>
<g>
	<path class="st3" d="M31.5,127.5v95.6c0,8.5,6.9,15.5,15.5,15.5h86.2V128.3L31.5,127.5z"/>
</g>
<g>
	<path class="st3" d="M233.7,127.5"/>
</g>
<g>
	<path class="st4" d="M218.2,242.6H47c-10.7,0-19.4-8.7-19.4-19.4V39.5c0-10.7,8.7-19.4,19.4-19.4h171.2c10.7,0,19.4,8.7,19.4,19.4
		v183.6C237.6,233.8,228.9,242.6,218.2,242.6z M47,28c-6.3,0-11.5,5.1-11.5,11.5v183.6c0,6.3,5.1,11.5,11.5,11.5h171.2
		c6.3,0,11.5-5.1,11.5-11.5V39.5c0-6.3-5.1-11.5-11.5-11.5H47z"/>
</g>
</svg>
