<?xml version="1.0" encoding="utf-8"?>
<!-- Generator: Adobe Illustrator 24.0.0, SVG Export Plug-In . SVG Version: 6.00 Build 0)  -->
<svg version="1.1" id="Capa_1" xmlns="http://www.w3.org/2000/svg" xmlns:xlink="http://www.w3.org/1999/xlink" x="0px" y="0px"
	 viewBox="0 0 261.2 262.6" style="enable-background:new 0 0 261.2 262.6;" xml:space="preserve">
<style type="text/css">
	.st0{fill:#BEC3D2;}
	.st1{fill:#DCE1EB;}
	.st2{fill:#1D1D1B;}
	.st3{fill:#9196AA;}
	.st4{fill:#F2F6FC;}
</style>
<g>
	<g>
		<path class="st0" d="M155.4,58.2h-49.5c-3.6,0-6.6-2.9-6.6-6.6V31.5c0-6.8,5.5-12.3,12.3-12.3h38.1c6.8,0,12.3,5.5,12.3,12.3v20.1
			C161.9,55.2,159,58.2,155.4,58.2z M112.4,45h36.4V32.3h-36.4V45z M149.6,32.3L149.6,32.3L149.6,32.3z"/>
	</g>
	<g>
		<path class="st0" d="M204.4,72.9c-1.2-1.3-3-2.1-4.8-2.1h-138c-1.8,0-3.6,0.8-4.8,2.1c-1.2,1.3-1.9,3.2-1.7,5l11.9,146.9
			c0.8,10.5,9.7,18.6,20.2,18.6h86.9c10.5,0,19.3-8.2,20.2-18.6l11.9-146.9C206.3,76.1,205.7,74.3,204.4,72.9z"/>
	</g>
	<g>
		<path class="st1" d="M61.6,70.8c-1.8,0-3.6,0.8-4.8,2.1c-1.2,1.3-1.9,3.2-1.7,5l11.9,146.9c0.8,10.5,9.7,18.6,20.2,18.6h43.5V70.8
			H61.6z"/>
	</g>
	<g>
		<path class="st2" d="M174.8,247.6H87.9c-12.6,0-23.3-9.9-24.3-22.5L51.6,78.2c-0.2-3,0.8-5.9,2.8-8.1c2-2.2,4.9-3.5,7.9-3.5h138
			c3,0,5.9,1.3,7.9,3.5c2,2.2,3,5.2,2.8,8.1l-11.9,146.9C198.1,237.7,187.4,247.6,174.8,247.6z M62.3,75c-0.7,0-1.3,0.3-1.8,0.8
			c-0.5,0.5-0.7,1.2-0.6,1.8l11.9,146.9c0.7,8.3,7.7,14.8,16,14.8h86.9c8.3,0,15.4-6.5,16-14.8l11.9-146.9c0.1-0.7-0.2-1.3-0.6-1.8
			c-0.5-0.5-1.1-0.8-1.8-0.8H62.3z"/>
	</g>
	<g>
		<path class="st1" d="M223.6,75.3L215,49.5c-0.9-2.7-3.4-4.5-6.2-4.5H52.5c-2.8,0-5.3,1.8-6.2,4.5l-8.6,25.8
			c-0.7,2-0.3,4.2,0.9,5.9c1.2,1.7,3.2,2.7,5.3,2.7h173.5c2.1,0,4.1-1,5.3-2.7C223.9,79.5,224.2,77.3,223.6,75.3z"/>
	</g>
	<g>
		<path class="st3" d="M163.1,223.2c-0.1,0-0.2,0-0.3,0c-3.6-0.2-6.4-3.3-6.2-6.9l6.2-118.4c0.2-3.6,3.3-6.4,6.9-6.2
			c3.6,0.2,6.4,3.3,6.2,6.9L169.7,217C169.5,220.5,166.6,223.2,163.1,223.2z"/>
	</g>
	<g>
		<path class="st0" d="M98.4,223.2c-3.5,0-6.4-2.7-6.6-6.2L85.4,98.6c-0.2-3.6,2.6-6.7,6.2-6.9c3.6-0.2,6.7,2.6,6.9,6.2l6.5,118.4
			c0.2,3.6-2.6,6.7-6.2,6.9C98.6,223.2,98.5,223.2,98.4,223.2z"/>
	</g>
	<g>
		<path class="st3" d="M130.7,223.2c-3.6,0-6.6-2.9-6.6-6.6V98.3c0-3.6,2.9-6.6,6.6-6.6c3.6,0,6.6,2.9,6.6,6.6v118.4
			C137.2,220.3,134.3,223.2,130.7,223.2z"/>
	</g>
	<g>
		<path class="st0" d="M124.1,98.3v118.4c0,3.6,2.9,6.5,6.5,6.6V91.7C127,91.8,124.1,94.7,124.1,98.3z"/>
	</g>
	<g>
		<path class="st1" d="M112.4,45V32.3h18.2V19.2h-19.1c-6.8,0-12.3,5.5-12.3,12.3v20.1c0,3.6,2.9,6.6,6.6,6.6h24.8V45H112.4z"/>
	</g>
	<g>
		<path class="st4" d="M53.2,45c-2.8,0-5.3,1.8-6.2,4.5l-8.6,25.8c-0.7,2-0.3,4.2,0.9,5.9c1.2,1.7,3.2,2.7,5.3,2.7h86.7V45H53.2z"/>
	</g>
	<g>
		<path class="st2" d="M217.3,88.1H43.9c-3.4,0-6.7-1.7-8.7-4.5c-2-2.8-2.6-6.4-1.5-9.7l8.6-25.8c1.5-4.4,5.5-7.3,10.2-7.3h156.3
			c4.6,0,8.7,2.9,10.2,7.3l8.6,25.8c1.1,3.3,0.5,6.9-1.5,9.7C224,86.4,220.8,88.1,217.3,88.1z M52.5,49.2c-1,0-2,0.7-2.3,1.6
			l-8.6,25.8c-0.2,0.7-0.1,1.5,0.3,2.2c0.5,0.6,1.2,1,2,1h173.5c0.8,0,1.5-0.4,2-1c0.5-0.6,0.6-1.4,0.3-2.2L211,50.8
			c-0.3-1-1.2-1.6-2.3-1.6H52.5z"/>
	</g>
	<g>
		<path class="st2" d="M148.5,49.2h-44.7v-21h44.7V49.2z M112.1,40.9h28v-4.4h-28V40.9z M161.6,46.3h-8.3V31.5
			c0-4.5-3.6-8.1-8.1-8.1h-38.1c-4.5,0-8.1,3.6-8.1,8.1v14.9h-8.3V31.5c0-9.1,7.4-16.4,16.4-16.4h38.1c9.1,0,16.4,7.4,16.4,16.4
			V46.3z"/>
	</g>
</g>
</svg>
