<?xml version="1.0" encoding="utf-8"?>
<!-- Generator: Adobe Illustrator 24.0.0, SVG Export Plug-In . SVG Version: 6.00 Build 0)  -->
<svg version="1.1" id="Capa_1" xmlns="http://www.w3.org/2000/svg" xmlns:xlink="http://www.w3.org/1999/xlink" x="0px" y="0px"
	 viewBox="0 0 261.2 262.6" style="enable-background:new 0 0 261.2 262.6;" xml:space="preserve">
<style type="text/css">
	.st0{fill:#FFDD09;}
	.st1{fill:#FD9808;}
	.st2{fill:#FFFFFF;}
</style>
<g>
	<g>
		<circle class="st0" cx="46.1" cy="38.4" r="24.9"/>
	</g>
	<g>
		<path class="st1" d="M56.2,19.7c0,0-28.1,5.1-19.1,37.4c0,0-4.6,3.1-7.5,0s-8.8-15.6-8.4-23.2s10.1-18.2,17.5-19.3
			S51.2,15,56.2,19.7z"/>
	</g>
	<g>
		
			<rect x="185.6" y="232.4" transform="matrix(-1 -4.489266e-11 4.489266e-11 -1 404.6617 482.4036)" class="st0" width="33.5" height="17.7"/>
	</g>
	<g>
		
			<rect x="186.1" y="232.4" transform="matrix(-1 -4.489443e-11 4.489443e-11 -1 394.8175 482.4036)" class="st1" width="22.6" height="17.7"/>
	</g>
	<g>
		
			<rect x="174.4" y="213.7" transform="matrix(-1 -4.488777e-11 4.488777e-11 -1 407.463 445.0537)" class="st0" width="58.7" height="17.7"/>
	</g>
	<g>
		
			<rect x="175.3" y="213.7" transform="matrix(-1 -4.494106e-11 4.494106e-11 -1 379.1546 445.0537)" class="st1" width="28.6" height="17.7"/>
	</g>
	<g>
		<path class="st0" d="M140.3,46.8l-3,15c0,0,28.6-0.5,39.7,23.1c11.1,23.6,19.2,49.4,21.7,112.2h11.4c0,0,8.2-40-3.3-73.9
			s-21.4-60-42.5-67.4S149.8,47.8,140.3,46.8z"/>
	</g>
	<g>
		
			<rect x="161.9" y="197" transform="matrix(-1 -4.488999e-11 4.488999e-11 -1 409.1893 411.7293)" class="st0" width="85.5" height="17.7"/>
	</g>
	<g>
		
			<rect x="161" y="195" transform="matrix(-1 -4.487711e-11 4.487711e-11 -1 350.5791 407.7039)" class="st1" width="28.6" height="17.7"/>
	</g>
	<g>
		
			<rect x="228.1" y="195" transform="matrix(-1 -4.496460e-11 4.496460e-11 -1 475.5002 407.7039)" class="st2" width="19.3" height="17.7"/>
	</g>
	<g>
		
			<rect x="213.8" y="213.7" transform="matrix(-1 -4.487001e-11 4.487001e-11 -1 446.9247 445.0537)" class="st2" width="19.3" height="17.7"/>
	</g>
	<g>
		<path d="M157.4,197v17.7c0,2.4,2,4.4,4.4,4.4h8.8v13.3c0,2.4,2,4.4,4.4,4.4h8.8V250c0,2.4,2,4.4,4.4,4.4h30.9c2.4,0,4.4-2,4.4-4.4
			v-13.3h8.8c2.4,0,4.4-2,4.4-4.4v-13.3h8.8c2.4,0,4.4-2,4.4-4.4V197c0-2.4-2-4.4-4.4-4.4h-30.9H206h-4.4h-8.8h-30.9
			C159.4,192.6,157.4,194.6,157.4,197z M192.8,236.8h22.1v8.8h-22.1V236.8z M179.5,219.1h48.6v8.8h-48.6V219.1z M166.3,201.4h75.1
			v8.8h-75.1V201.4z"/>
	</g>
	<g>
		<path d="M213.7,199.9c0.1-0.9,2.8-22.1,0.9-48.9c-2.6-36.4-12.2-64.2-28.5-82.7c-14.8-16.9-34.9-25.4-59.8-25.4c0,0,0,0,0,0v7.7
			c22.6,0,40.7,7.7,54,22.8c36.2,41.2,25.9,124.7,25.7,125.5L213.7,199.9z"/>
	</g>
	<g>
		<path d="M200.6,197.4c0.1-0.9,2-22.1-0.5-48.1c-3.3-35.3-12.8-61.1-28-76.7C160.1,60.3,144.5,54.7,126,56l0.5,7.7
			c16.2-1.1,29.7,3.7,40.1,14.3c33.6,34.3,26.4,117.8,26.3,118.7L200.6,197.4z"/>
	</g>
	<g>
		<g>
			<polygon class="st0" points="74.4,44.2 144.5,16.9 135.4,76.5 			"/>
		</g>
		<g>
			<path d="M73.2,41l70.1-27.3c1.1-0.4,2.4-0.2,3.4,0.5c0.9,0.8,1.4,2,1.2,3.2l-11.4,74.3c-0.2,1.2-1,2.2-2.1,2.6
				c-1.1,0.4-2.4,0.2-3.4-0.5l-58.7-47c-0.9-0.8-1.4-2-1.2-3.2c0.1-0.5,0.3-1,0.5-1.4C72,41.7,72.5,41.3,73.2,41z M140.3,22.2
				l-59.1,23l49.5,39.7L140.3,22.2z"/>
		</g>
	</g>
	<g>
		<g>
			<polygon class="st1" points="82.8,45.2 137.1,39.6 139.9,22.6 			"/>
		</g>
	</g>
	<g>
		<polygon class="st2" points="132.2,74.8 130.6,84.9 90.5,52.7 		"/>
	</g>
	<g>
		<path d="M17.6,38.4c0-15.7,12.8-28.5,28.5-28.5s28.5,12.8,28.5,28.5S61.8,66.9,46.1,66.9S17.6,54.1,17.6,38.4z M24.8,38.4
			c0,11.8,9.6,21.4,21.4,21.4s21.4-9.6,21.4-21.4s-9.6-21.4-21.4-21.4S24.8,26.6,24.8,38.4z"/>
	</g>
</g>
</svg>
