<?xml version="1.0" encoding="utf-8"?>
<!-- Generator: Adobe Illustrator 24.0.0, SVG Export Plug-In . SVG Version: 6.00 Build 0)  -->
<svg version="1.1" id="Capa_1" xmlns="http://www.w3.org/2000/svg" xmlns:xlink="http://www.w3.org/1999/xlink" x="0px" y="0px"
	 viewBox="0 0 261.2 262.6" style="enable-background:new 0 0 261.2 262.6;" xml:space="preserve">
<style type="text/css">
	.st0{fill:#FFDD09;}
	.st1{fill:#FD9808;}
	.st2{fill:#FFFFFF;}
</style>
<g>
	<g>
		<circle class="st0" cx="221.4" cy="38.4" r="24.9"/>
	</g>
	<g>
		<path class="st1" d="M228.8,14.6c7.4,1.1,17.1,11.7,17.5,19.3c0.4,7.6-5.5,20.1-8.4,23.2c-2.9,3.1-7.5,0-7.5,0
			c9-32.3-19.1-37.4-19.1-37.4C216.3,15,221.4,13.5,228.8,14.6z"/>
	</g>
	<g>
		<rect x="48.4" y="232.3" class="st0" width="33.5" height="17.7"/>
	</g>
	<g>
		<rect x="58.8" y="232.3" class="st1" width="22.6" height="17.7"/>
	</g>
	<g>
		<rect x="34.4" y="213.7" class="st0" width="58.7" height="17.7"/>
	</g>
	<g>
		<rect x="63.6" y="213.7" class="st1" width="28.6" height="17.7"/>
	</g>
	<g>
		<path class="st0" d="M103.2,55.8c-21.1,7.4-31,33.5-42.5,67.4s-3.3,73.9-3.3,73.9h11.4c2.5-62.8,10.6-88.6,21.7-112.2
			c11.1-23.6,39.7-23.1,39.7-23.1l-3-15C117.7,47.8,124.3,48.4,103.2,55.8z"/>
	</g>
	<g>
		<rect x="20.2" y="197" class="st0" width="85.5" height="17.7"/>
	</g>
	<g>
		<rect x="77.9" y="195" class="st1" width="28.6" height="17.7"/>
	</g>
	<g>
		<rect x="20.1" y="195" class="st2" width="19.3" height="17.7"/>
	</g>
	<g>
		<rect x="34.4" y="213.7" class="st2" width="19.3" height="17.7"/>
	</g>
	<g>
		<path d="M105.6,192.6H74.7h-8.8h-4.4h-8.6H22c-2.4,0-4.4,2-4.4,4.4v17.6c0,2.4,2,4.4,4.4,4.4h8.8v13.3c0,2.4,2,4.4,4.4,4.4H44V250
			c0,2.4,2,4.4,4.4,4.4h30.9c2.4,0,4.4-2,4.4-4.4v-13.2h8.8c2.4,0,4.4-2,4.4-4.4v-13.3h8.8c2.4,0,4.4-2,4.4-4.4V197
			C110.1,194.6,108.1,192.6,105.6,192.6z M74.7,245.6H52.6v-8.8h22.1V245.6z M88,227.9H39.4v-8.8H88V227.9z M101.2,201.4v8.8H26.1
			v-8.8H101.2L101.2,201.4z"/>
	</g>
	<g>
		<path d="M61.5,198.9c-0.2-0.8-10.5-84.3,25.7-125.5c13.3-15.1,31.4-22.8,54-22.8v-7.7l0,0c-24.9,0-45,8.5-59.8,25.4
			C65.1,86.8,55.5,114.6,52.9,151c-1.9,26.8,0.8,48,0.9,48.9L61.5,198.9z"/>
	</g>
	<g>
		<path d="M74.6,196.7c-0.1-0.9-7.3-84.4,26.3-118.7c10.4-10.6,23.9-15.4,40.1-14.3l0.5-7.7c-18.5-1.3-34.1,4.3-46.1,16.6
			c-15.2,15.6-24.7,41.4-28,76.7c-2.5,26-0.6,47.2-0.5,48.1L74.6,196.7z"/>
	</g>
	<g>
		<g>
			<polygon class="st0" points="132.1,76.5 123,16.9 193.1,44.2 			"/>
		</g>
		<g>
			<path d="M195.9,42.2c0.2,0.4,0.4,0.9,0.5,1.4c0.2,1.2-0.3,2.4-1.2,3.2l-58.7,47c-1,0.7-2.3,0.9-3.4,0.5s-1.9-1.4-2.1-2.6
				l-11.4-74.3c-0.2-1.2,0.3-2.4,1.2-3.2c1-0.7,2.3-0.9,3.4-0.5L194.3,41C195,41.3,195.5,41.7,195.9,42.2z M136.8,84.9l49.5-39.7
				l-59.1-23L136.8,84.9z"/>
		</g>
	</g>
	<g>
		<g>
			<polygon class="st1" points="127.6,22.6 130.4,39.6 184.7,45.2 			"/>
		</g>
	</g>
	<g>
		<polygon class="st2" points="177,52.7 136.9,84.9 135.3,74.8 		"/>
	</g>
	<g>
		<path d="M221.4,66.9c-15.7,0-28.5-12.8-28.5-28.5s12.8-28.5,28.5-28.5s28.5,12.8,28.5,28.5S237.1,66.9,221.4,66.9z M221.3,17
			c-11.8,0-21.4,9.6-21.4,21.4s9.6,21.4,21.4,21.4c11.8,0,21.4-9.6,21.4-21.4S233.1,17,221.3,17z"/>
	</g>
</g>
</svg>
