<?xml version="1.0" encoding="utf-8"?>
<!-- Generator: Adobe Illustrator 24.0.0, SVG Export Plug-In . SVG Version: 6.00 Build 0)  -->
<svg version="1.1" id="Capa_1" xmlns="http://www.w3.org/2000/svg" xmlns:xlink="http://www.w3.org/1999/xlink" x="0px" y="0px"
	 viewBox="0 0 179.3 262.6" style="enable-background:new 0 0 179.3 262.6;" xml:space="preserve">
<style type="text/css">
	.st0{fill:#37C609;}
	.st1{fill:#FFFFFF;}
	.st2{fill:#1C6305;}
</style>
<g>
	<g transform="translate(0 1)">
		<g>
			<path class="st0" d="M150.7,86.9h-47.2l43.7-68.8H92.1L40.5,121.4h40.6l-40.6,96.4L150.7,86.9z"/>
		</g>
		<g>
			<path class="st1" d="M105.9,18.1H92.1L40.5,121.4h13.8L105.9,18.1z"/>
		</g>
		<g>
			<path class="st2" d="M133.4,86.9L50.8,185L37,217.7L147.2,86.9H133.4z"/>
		</g>
		<g>
			<path d="M40.5,221.2c-0.7,0-1.4,0-1.7-0.3c-1.4-1-2.1-2.8-1.4-4.1l38.6-92H40.5c-1,0-2.4-0.7-3.1-1.7c-0.7-1-0.7-2.4,0-3.4
				L89,16.4c0.7-1,1.7-1.7,3.1-1.7h55.1c1.4,0,2.4,0.7,3.1,1.7c0.7,1,0.7,2.4,0,3.4L110,83.5h40.6c1.4,0,2.4,0.7,3.1,2.1
				c0.7,1.4,0.3,2.8-0.3,3.8L43.3,220.1C42.6,220.8,41.6,221.2,40.5,221.2z M46,117.9h35.1c1,0,2.1,0.7,2.8,1.4
				c0.7,1,0.7,2.1,0.3,3.1l-31.7,75.7l90.9-107.7h-39.9c-1.4,0-2.4-0.7-3.1-1.7s-0.7-2.4,0-3.4L141,21.5H94.2L46,117.9z"/>
		</g>
	</g>
	<g>
		<polygon class="st0" points="34,244.5 92.6,203.3 40.5,179.2 		"/>
		<path d="M34,247.7c-0.5,0-0.9-0.1-1.4-0.3c-1-0.5-1.8-1.5-1.9-2.6l-6.4-71.3c-0.1-1.1,0.4-2.3,1.4-2.9c0.9-0.7,2.2-0.8,3.2-0.3
			l64.9,30.1c1,0.5,1.8,1.5,1.9,2.6s-0.4,2.3-1.4,2.9L35.8,247C35.3,247.5,34.7,247.7,34,247.7z M31.4,178.5l5.4,60.1l49.4-34.7
			L31.4,178.5z"/>
	</g>
	<g>
		<polygon class="st2" points="37.6,237.3 70.6,197.2 85.6,204 		"/>
	</g>
</g>
<polygon class="st1" points="40.2,182.6 31.4,178.5 35.7,227.3 "/>
</svg>
