<?xml version="1.0" encoding="utf-8"?>
<!-- Generator: Adobe Illustrator 24.0.0, SVG Export Plug-In . SVG Version: 6.00 Build 0)  -->
<svg version="1.1" id="Capa_1" xmlns="http://www.w3.org/2000/svg" xmlns:xlink="http://www.w3.org/1999/xlink" x="0px" y="0px"
	 viewBox="0 0 40 40" style="enable-background:new 0 0 40 40;" xml:space="preserve">
<style type="text/css">
	.st0{fill:#1730E5;}
	.st1{fill:#1D1D1B;}
</style>
<g>
	<path class="st0" d="M20,28.8c-5.1,0-9.3-4.2-9.3-9.3s4.2-9.3,9.3-9.3s9.3,4.2,9.3,9.3S25.1,28.8,20,28.8z M20,13.9
		c-3,0-5.5,2.5-5.5,5.5c0,3,2.5,5.5,5.5,5.5c3,0,5.5-2.5,5.5-5.5C25.5,16.4,23,13.9,20,13.9z"/>
	<path class="st1" d="M20,10.6c4.9,0,8.8,4,8.8,8.8s-4,8.8-8.8,8.8c-4.9,0-8.8-4-8.8-8.8S15.1,10.6,20,10.6 M20,25.5
		c3.3,0,6-2.7,6-6c0-3.3-2.7-6-6-6c-3.3,0-6,2.7-6,6C14,22.8,16.7,25.5,20,25.5 M20,9.6c-5.4,0-9.8,4.4-9.8,9.8
		c0,5.4,4.4,9.8,9.8,9.8c5.4,0,9.8-4.4,9.8-9.8C29.8,14,25.4,9.6,20,9.6L20,9.6z M20,24.5c-2.8,0-5-2.3-5-5s2.3-5,5-5
		c2.8,0,5,2.3,5,5S22.8,24.5,20,24.5L20,24.5z"/>
</g>
</svg>
