<?xml version="1.0" encoding="utf-8"?>
<!-- Generator: Adobe Illustrator 24.0.0, SVG Export Plug-In . SVG Version: 6.00 Build 0)  -->
<svg version="1.1" id="Capa_1" xmlns="http://www.w3.org/2000/svg" xmlns:xlink="http://www.w3.org/1999/xlink" x="0px" y="0px"
	 viewBox="0 0 40 40" style="enable-background:new 0 0 40 40;" xml:space="preserve">
<style type="text/css">
	.st0{fill:#FFDB0C;}
	.st1{fill:#FBBF00;}
	.st2{fill:#FF8800;}
	.st3{fill:#E47700;}
	.st4{fill:#984D00;}
	.st5{fill:#723802;}
	.st6{fill:#1D1D1B;}
</style>
<g>
	<g>
		<path class="st0" d="M20,3.3L20,3.3c-5,0-9.1,4.1-9.1,9.1v4.7H15v-4.7c0-2.8,2.3-5,5-5l0,0c2.8,0,5,2.3,5,5v4.7h4.1v-4.7
			C29.1,7.4,25,3.3,20,3.3z"/>
	</g>
	<g>
		<path class="st1" d="M20,3.3L20,3.3c0,1.3,0,2.5,0,4.1l0,0c2.8,0,5,2.3,5,5v4.7h4.1v-4.7C29.1,7.4,25,3.3,20,3.3z"/>
	</g>
	<g>
		<rect x="6.8" y="16.2" class="st2" width="26.5" height="19.6"/>
	</g>
	<g>
		<rect x="20" y="16.2" class="st3" width="13.2" height="19.6"/>
	</g>
	<g>
		<path class="st4" d="M22.5,24.2c0-1.4-1.1-2.5-2.5-2.5c-1.4,0-2.5,1.1-2.5,2.5c0,0.9,0.5,1.7,1.1,2.1l-0.8,4h4.4l-0.8-4
			C22,25.8,22.5,25,22.5,24.2z"/>
	</g>
	<g>
		<path class="st5" d="M22.5,24.2c0-1.4-1.1-2.5-2.5-2.5c0,1.1,0,8.6,0,8.6h2.2l-0.8-4C22,25.8,22.5,25,22.5,24.2z"/>
	</g>
	<g>
		<path class="st6" d="M33.2,36.4H6.8c-0.4,0-0.7-0.3-0.7-0.7V16.2c0-0.4,0.3-0.7,0.7-0.7h26.5c0.4,0,0.7,0.3,0.7,0.7v19.6
			C33.9,36.1,33.6,36.4,33.2,36.4z M7.4,35.1h25.1V16.8H7.4V35.1z"/>
	</g>
	<g>
		<path class="st6" d="M22.2,30.9h-4.4c-0.2,0-0.4-0.1-0.5-0.2c-0.1-0.2-0.2-0.4-0.1-0.6l0.8-3.6c-0.7-0.6-1.1-1.4-1.1-2.4
			c0-1.7,1.4-3.1,3.1-3.1c1.7,0,3.1,1.4,3.1,3.1c0,0.9-0.4,1.8-1,2.4l0.8,3.6c0,0.2,0,0.4-0.1,0.6C22.6,30.8,22.4,30.9,22.2,30.9z
			 M18.6,29.6h2.8l-0.7-3.2c-0.1-0.3,0.1-0.5,0.3-0.7c0.5-0.3,0.8-0.9,0.8-1.5c0-1-0.8-1.8-1.8-1.8s-1.8,0.8-1.8,1.8
			c0,0.6,0.3,1.2,0.8,1.5c0.2,0.1,0.4,0.4,0.3,0.7L18.6,29.6z"/>
	</g>
	<g>
		<path class="st6" d="M29.1,16.8H25c-0.4,0-0.7-0.3-0.7-0.7v-3.7c0-2.4-2-4.4-4.4-4.4s-4.4,2-4.4,4.4v3.7c0,0.4-0.3,0.7-0.7,0.7
			h-4.1c-0.4,0-0.7-0.3-0.7-0.7v-3.7c0-5.4,4.4-9.8,9.8-9.8c5.4,0,9.8,4.4,9.8,9.8v3.7C29.8,16.5,29.5,16.8,29.1,16.8z M25.7,15.5
			h2.8v-3C28.5,7.8,24.7,4,20,4c-4.7,0-8.5,3.8-8.5,8.5v3h2.8v-3c0-3.1,2.6-5.7,5.7-5.7s5.7,2.6,5.7,5.7V15.5z"/>
	</g>
</g>
</svg>
