<?xml version="1.0" encoding="utf-8"?>
<!-- Generator: Adobe Illustrator 24.0.0, SVG Export Plug-In . SVG Version: 6.00 Build 0)  -->
<svg version="1.1" id="Capa_1" xmlns="http://www.w3.org/2000/svg" xmlns:xlink="http://www.w3.org/1999/xlink" x="0px" y="0px"
	 viewBox="0 0 40 40" style="enable-background:new 0 0 40 40;" xml:space="preserve">
<style type="text/css">
	.st0{fill:#1D1D1B;}
	.st1{fill:#FFFFFF;}
	.st2{fill:#FFDB0C;}
	.st3{fill:#FBBF00;}
</style>
<g>
	<g>
		<g>
			<rect x="19.1" y="4.1" class="st0" width="1.5" height="34.4"/>
		</g>
		<g>
			<circle class="st1" cx="20" cy="33" r="5.6"/>
			<path class="st0" d="M20,39.5c-3.5,0-6.4-2.9-6.4-6.4s2.9-6.4,6.4-6.4c3.5,0,6.4,2.9,6.4,6.4S23.5,39.5,20,39.5z M20,28.2
				c-2.7,0-4.9,2.2-4.9,4.9s2.2,4.9,4.9,4.9s4.9-2.2,4.9-4.9S22.7,28.2,20,28.2z"/>
		</g>
		<g>
			<circle class="st1" cx="20" cy="8.9" r="5.6"/>
			<path class="st0" d="M20,15.3c-3.5,0-6.4-2.9-6.4-6.4s2.9-6.4,6.4-6.4c3.5,0,6.4,2.9,6.4,6.4S23.5,15.3,20,15.3z M20,4.1
				c-2.7,0-4.9,2.2-4.9,4.9s2.2,4.9,4.9,4.9s4.9-2.2,4.9-4.9S22.7,4.1,20,4.1z"/>
		</g>
	</g>
	<g>
		<circle class="st2" cx="20" cy="8.9" r="5.2"/>
		<path class="st3" d="M20,3.8c2.8,0,5.2,2.3,5.2,5.2s-2.3,5.2-5.2,5.2"/>
	</g>
	<g>
		<circle class="st2" cx="20" cy="33" r="5.2"/>
		<path class="st3" d="M20,27.9c2.8,0,5.2,2.3,5.2,5.2s-2.3,5.2-5.2,5.2"/>
	</g>
</g>
</svg>
