<?xml version="1.0" encoding="utf-8"?>
<!-- Generator: Adobe Illustrator 24.0.0, SVG Export Plug-In . SVG Version: 6.00 Build 0)  -->
<svg version="1.1" id="Capa_1" xmlns="http://www.w3.org/2000/svg" xmlns:xlink="http://www.w3.org/1999/xlink" x="0px" y="0px"
	 viewBox="0 0 40 40" style="enable-background:new 0 0 40 40;" xml:space="preserve">
<style type="text/css">
	.st0{fill:#009BDA;}
	.st1{fill:#00E3E8;}
	.st2{fill:#FFFFFF;}
	.st3{fill:#00F3FF;}
</style>
<g>
	<g>
		<rect x="19.2" width="1.4" height="40.4"/>
	</g>
	<g>
		<g>
			<g>
				<path class="st0" d="M34,10l-1,1.5c0,0,3.3,1.3,3.4,4.5c0.1,3.2-0.8,7.6-3.5,14.8l1.3,0.5c0,0,3.4-5.2,3.7-9.6
					c0.3-4.4,0.4-7.8-1.6-9.7C34.2,10.3,35,10.5,34,10z"/>
			</g>
		</g>
		<g>
			<g>
				<path d="M35,30.8c0.1-0.1,1.4-2.4,2.4-5.5c1.4-4.2,1.7-7.8,0.7-10.7c-0.9-2.6-2.7-4.5-5.6-5.7l0,0l-0.4,0.9
					c2.6,1.1,4.2,2.8,5,5.1c2.1,6.4-3,15.3-3.1,15.4L35,30.8z"/>
			</g>
		</g>
		<g>
			<g>
				<path d="M33.6,29.9c0.1-0.1,1.3-2.4,2.2-5.5c1.3-4.1,1.5-7.5,0.5-10c-0.8-2-2.3-3.3-4.4-4.1l-0.3,0.9c1.9,0.6,3.2,1.8,3.9,3.5
					c2.2,5.5-2.6,14.6-2.7,14.7L33.6,29.9z"/>
			</g>
		</g>
		<g>
			<g>
				<g>
					<polygon class="st0" points="26.7,6.5 35.9,6.8 32,13.1 					"/>
				</g>
			</g>
			<g>
				<g>
					<path d="M26.7,6.1l9.2,0.3c0.1,0,0.3,0.1,0.4,0.2c0.1,0.1,0.1,0.3,0,0.4l-4.8,7.9C31.4,15,31.2,15,31.1,15
						c-0.1,0-0.3-0.1-0.4-0.2l-4.4-8.1c-0.1-0.1-0.1-0.3,0-0.4c0,0,0.1-0.1,0.1-0.1C26.5,6.1,26.6,6.1,26.7,6.1z M35.2,7.2L27.4,7
						l3.7,6.8L35.2,7.2z"/>
				</g>
			</g>
		</g>
		<g>
			<g>
				<g>
					<polygon class="st1" points="27.6,7 34,9 35.1,7.2 					"/>
				</g>
			</g>
		</g>
		<g>
			<g>
				<polygon class="st2" points="31.8,12.7 31.1,13.8 28.1,8.2 				"/>
			</g>
		</g>
		<g>
			<g>
				<path d="M33.3,31.5c-0.1-0.1-0.2-0.1-0.3-0.2c-0.1-0.1-0.3-0.2-0.3-0.4c-0.2-0.5,0.1-1.4,0.2-1.6l0.8,0.4l-0.4-0.2l0.4,0.2
					c-0.1,0.3-0.2,0.6-0.2,0.8l0,0l0.1,0.1c0,0,0.1,0.1,0.2,0c0.1,0,0.4-0.1,0.7-0.8l0.8,0.4c-0.4,0.8-0.9,1.2-1.4,1.3
					C33.6,31.6,33.4,31.5,33.3,31.5z"/>
			</g>
		</g>
	</g>
	<g>
		<g>
			<g>
				<path class="st0" d="M4.6,26.5L6,25.3c0,0-2.9-2-2.3-5.1s2.4-7.2,6.7-13.7L9.2,5.6c0,0-4.5,4.3-5.8,8.5s-2.1,7.5-0.6,9.8
					C4.4,26.2,3.8,25.7,4.6,26.5z"/>
			</g>
		</g>
		<g>
			<g>
				<path d="M8.2,6c-0.1,0.1-1.9,2-3.6,4.8c-2.3,3.8-3.4,7.3-3.1,10.3c0.3,2.7,1.7,5,4.2,6.8l0,0l0.6-0.8c-2.3-1.6-3.5-3.7-3.8-6.1
					C1.9,14.3,8.9,6.7,8.9,6.6L8.2,6z"/>
			</g>
		</g>
		<g>
			<g>
				<path d="M9.4,7.2C9.3,7.3,7.6,9.3,6,12c-2.2,3.8-3.1,7-2.7,9.7c0.3,2.1,1.5,3.8,3.4,4.9l0.5-0.8c-1.7-1-2.7-2.5-3-4.3
					C3.3,15.7,10,7.9,10.1,7.8L9.4,7.2z"/>
			</g>
		</g>
		<g>
			<g>
				<g>
					<polygon class="st0" points="11,31.5 2.1,29.2 7.2,23.9 					"/>
				</g>
			</g>
			<g>
				<g>
					<path d="M10.9,31.9L2,29.6c-0.1,0-0.2-0.2-0.3-0.3c0-0.1,0-0.3,0.1-0.4l6.4-6.6c0.1-0.1,0.3-0.2,0.4-0.1c0.1,0,0.2,0.2,0.3,0.3
						l2.5,8.9c0,0.1,0,0.3-0.1,0.4c0,0-0.1,0.1-0.2,0.1C11.1,31.9,11,31.9,10.9,31.9z M2.9,29l7.5,1.9l-2.1-7.5L2.9,29z"/>
				</g>
			</g>
		</g>
		<g>
			<g>
				<g>
					<polygon class="st1" points="10.2,30.8 4.4,27.5 2.9,29 					"/>
				</g>
			</g>
		</g>
		<g>
			<g>
				<polygon class="st2" points="7.4,24.3 8.3,23.4 10,29.5 				"/>
			</g>
		</g>
		<g>
			<g>
				<path d="M10.1,5.7c0.1,0.1,0.2,0.2,0.2,0.2c0.1,0.1,0.2,0.2,0.2,0.4c0.1,0.6-0.4,1.3-0.5,1.5L9.3,7.4l0.4,0.3L9.3,7.4
					c0.2-0.2,0.3-0.6,0.4-0.7l0,0l0-0.1c0,0-0.1-0.1-0.2-0.1C9.3,6.4,9,6.4,8.5,7L7.8,6.4c0.6-0.7,1.2-1,1.7-0.9
					C9.8,5.5,9.9,5.6,10.1,5.7z"/>
			</g>
		</g>
	</g>
	<g>
		<rect x="2.7" y="19.5" class="st0" width="34.7" height="1.4"/>
	</g>
	<g>
		<circle class="st3" cx="19.9" cy="20.3" r="7.2"/>
		<path d="M19.9,28.2c-4.4,0-7.9-3.6-7.9-7.9c0-4.4,3.6-7.9,7.9-7.9c4.4,0,7.9,3.6,7.9,7.9C27.8,24.6,24.2,28.2,19.9,28.2z
			 M19.9,13.7c-3.6,0-6.5,2.9-6.5,6.5s2.9,6.5,6.5,6.5c3.6,0,6.5-2.9,6.5-6.5S23.5,13.7,19.9,13.7z"/>
	</g>
</g>
</svg>
