<?xml version="1.0" encoding="utf-8"?>
<!-- Generator: Adobe Illustrator 24.0.0, SVG Export Plug-In . SVG Version: 6.00 Build 0)  -->
<svg version="1.1" id="Capa_1" xmlns="http://www.w3.org/2000/svg" xmlns:xlink="http://www.w3.org/1999/xlink" x="0px" y="0px"
	 viewBox="0 0 40 40" style="enable-background:new 0 0 40 40;" xml:space="preserve">
<style type="text/css">
	.st0{fill:#F9B607;}
	.st1{fill:#1D1D1B;}
	.st2{fill:#FFDB00;}
	.st3{fill:#F7AB0E;}
	.st4{fill:#FFE400;}
</style>
<g>
	<g>
		<g>
			<path class="st0" d="M3.2,21.4c0,0-0.1,0-0.1,0c-0.2-0.1-0.4-0.3-0.4-0.5C2.6,9.6,17.7,8.1,17.8,8.1c0,0,0,0,0,0
				c0.1,0,0.3,0,0.4,0.1c0.1,0.1,0.2,0.2,0.2,0.4l0.2,3.7c0,0.1,0,0.3-0.1,0.4c-0.1,0.1-0.2,0.2-0.4,0.2c0,0,0,0,0,0
				c-0.3,0-0.6,0-0.9,0C7.6,13.4,3.7,21,3.6,21.1C3.5,21.3,3.4,21.4,3.2,21.4z"/>
			<path class="st1" d="M17.9,8.6l0.2,3.7c-0.3,0-0.6,0-1,0c-10,0.5-14,8.5-14,8.5C3.1,9.9,17.9,8.6,17.9,8.6 M17.8,7.6
				C17.8,7.6,17.8,7.6,17.8,7.6c-0.2,0-3.9,0.4-7.8,2.1c-5.2,2.4-8,6.3-8,11.2c0,0.5,0.3,0.9,0.8,1c0.1,0,0.2,0,0.3,0
				c0.4,0,0.7-0.2,0.9-0.6c0.2-0.3,3.8-7.4,13.1-7.9c0.3,0,0.6,0,0.9,0c0,0,0,0,0.1,0c0.3,0,0.5-0.1,0.7-0.3
				c0.2-0.2,0.3-0.5,0.3-0.8l-0.2-3.7c0-0.3-0.1-0.6-0.4-0.7C18.4,7.6,18.1,7.5,17.8,7.6L17.8,7.6z"/>
		</g>
		<g>
			<path class="st2" d="M15.2,34.6c-0.1,0-0.1,0-0.2,0c-0.2-0.1-0.3-0.3-0.4-0.5l-0.1-2.2c-5.7-0.8-8.6-3.4-10-5.5
				c-1.6-2.3-1.8-4.5-1.8-4.6c0-0.2,0.1-0.5,0.3-0.5c0,0,0.1,0,0.1,0c0.2,0,0.4,0.1,0.5,0.2c3.6,5.3,8.1,5.9,10.5,5.8
				c0.3,0,0.5,0,0.7-0.1l-0.1-2.7c0-0.2,0.1-0.4,0.3-0.5c0,0,0.1,0,0.1,0c0.2,0,0.3,0.1,0.5,0.2l3.8,5.2c0.1,0.2,0.1,0.5,0,0.7
				l-3.8,4.5C15.4,34.6,15.3,34.6,15.2,34.6z"/>
			<path class="st1" d="M3.2,21.8c3.8,5.6,8.8,6.1,11,6c0.7,0,1.2-0.1,1.2-0.1l-0.2-3.1l3.8,5.2l-3.8,4.5L15,31.4
				C3.8,30.1,3.2,21.8,3.2,21.8 M3.1,20.7c-0.1,0-0.2,0-0.3,0.1c-0.4,0.2-0.7,0.6-0.7,1.1c0,0.1,0.2,2.4,1.9,4.9
				c2.6,3.7,6.7,5.1,10,5.7l0.1,1.8c0,0.4,0.3,0.8,0.7,0.9c0.1,0,0.3,0.1,0.4,0.1c0.3,0,0.5-0.1,0.7-0.4l3.8-4.5
				c0.3-0.4,0.3-0.9,0.1-1.3L16,23.9c-0.2-0.3-0.6-0.4-0.9-0.4c-0.1,0-0.2,0-0.3,0.1c-0.4,0.2-0.7,0.6-0.7,1l0.1,2.2
				c0,0-0.1,0-0.1,0c-2.3,0.1-6.6-0.4-10.1-5.5C3.8,20.9,3.5,20.7,3.1,20.7L3.1,20.7z"/>
		</g>
	</g>
	<g>
		<g>
			<path class="st3" d="M22.4,33.2c-0.1,0-0.3,0-0.4-0.1c-0.1-0.1-0.2-0.2-0.2-0.4L21.6,29c0-0.1,0-0.3,0.1-0.4
				c0.1-0.1,0.2-0.2,0.4-0.2c0,0,0,0,0,0c0.3,0,0.6,0,0.9,0c9.6-0.5,13.5-8.1,13.5-8.2c0.1-0.2,0.3-0.3,0.4-0.3c0,0,0.1,0,0.1,0
				c0.2,0.1,0.4,0.3,0.4,0.5C37.6,31.7,22.5,33.2,22.4,33.2C22.4,33.2,22.4,33.2,22.4,33.2z"/>
			<path class="st1" d="M37.1,20.4L37.1,20.4 M37.1,20.4c0,10.9-14.7,12.3-14.7,12.3L22.1,29c0.3,0,0.6,0,1,0
				C33.1,28.4,37.1,20.4,37.1,20.4 M37,19.4c0,0-0.1,0-0.1,0c-0.2,0-0.3,0.1-0.5,0.2c-0.1,0.1-0.2,0.1-0.2,0.2c0,0-0.1,0.1-0.1,0.1
				c-0.2,0.5-3.9,7.4-13.1,7.9c-0.3,0-0.6,0-0.9,0c0,0,0,0-0.1,0c-0.3,0-0.5,0.1-0.7,0.3c-0.2,0.2-0.3,0.5-0.3,0.8l0.2,3.7
				c0,0.3,0.1,0.6,0.4,0.7c0.2,0.2,0.5,0.3,0.7,0.3c0,0,0,0,0,0c0.2,0,3.9-0.4,7.7-2.1c5.2-2.4,8-6.2,8-11.1c0,0,0-0.1,0-0.1
				C38.1,19.8,37.6,19.4,37,19.4C37,19.4,37,19.4,37,19.4L37,19.4z M37.1,21.5L37.1,21.5L37.1,21.5L37.1,21.5z"/>
		</g>
		<g>
			<path class="st4" d="M37.1,20.1c-0.2,0-0.4-0.1-0.5-0.2c-3.6-5.3-8.1-5.9-10.5-5.8c-0.3,0-0.5,0-0.7,0.1l0.1,2.7
				c0,0.2-0.1,0.4-0.3,0.5c0,0-0.1,0-0.1,0c-0.2,0-0.3-0.1-0.5-0.2L20.8,12c-0.1-0.2-0.1-0.5,0-0.7l3.8-4.5c0.1-0.1,0.2-0.2,0.4-0.2
				c0.1,0,0.1,0,0.2,0c0.2,0.1,0.3,0.3,0.4,0.5l0.1,2.2c5.7,0.8,8.6,3.4,10,5.5c1.6,2.3,1.8,4.5,1.8,4.6c0,0.2-0.1,0.5-0.3,0.5
				C37.2,20.1,37.1,20.1,37.1,20.1z"/>
			<path class="st1" d="M25.1,7.2l0.1,2.7C36.4,11.2,37,19.5,37,19.5c-3.8-5.6-8.8-6.1-11-6c-0.7,0-1.2,0.1-1.2,0.1l0.2,3.1
				l-3.8-5.2L25.1,7.2 M25,6.1c-0.3,0-0.5,0.1-0.7,0.4L20.4,11c-0.3,0.4-0.3,0.9-0.1,1.3l3.8,5.2c0.2,0.3,0.6,0.4,0.9,0.4
				c0.1,0,0.2,0,0.3-0.1c0.4-0.2,0.7-0.6,0.7-1L26,14.6c0,0,0.1,0,0.1,0c2.3-0.1,6.6,0.4,10.1,5.5c0.2,0.3,0.6,0.5,0.9,0.5
				c0.1,0,0.2,0,0.3-0.1c0.4-0.2,0.7-0.6,0.7-1.1c0-0.1-0.2-2.4-1.9-4.9c-2.6-3.7-6.7-5.1-10-5.7l-0.1-1.8c0-0.4-0.3-0.8-0.7-0.9
				C25.3,6.1,25.2,6.1,25,6.1L25,6.1z"/>
		</g>
	</g>
</g>
</svg>
