<?xml version="1.0" encoding="utf-8"?>
<!-- Generator: Adobe Illustrator 24.0.0, SVG Export Plug-In . SVG Version: 6.00 Build 0)  -->
<svg version="1.1" id="Capa_1" xmlns="http://www.w3.org/2000/svg" xmlns:xlink="http://www.w3.org/1999/xlink" x="0px" y="0px"
	 viewBox="0 0 40 40" style="enable-background:new 0 0 40 40;" xml:space="preserve">
<style type="text/css">
	.st0{fill:#1D1D1B;}
	.st1{fill:#FFDD09;}
	.st2{fill:#FD9808;}
	.st3{fill:#FFFFFF;}
</style>
<g>
	<g>
		<g>
			<g>
				<rect x="19.7" y="3.3" class="st0" width="1.5" height="33.2"/>
			</g>
		</g>
	</g>
	<g>
		<g>
			<g>
				<polygon class="st1" points="20.5,37.2 12.5,23.5 25.2,23.4 				"/>
			</g>
			<g>
				<path d="M19.9,37.6l-8.1-13.7c-0.1-0.2-0.1-0.5,0-0.7c0.1-0.2,0.4-0.4,0.6-0.4l15.9-0.1c0.3,0,0.5,0.1,0.6,0.4
					c0.1,0.2,0.1,0.5,0,0.7l-7.8,13.8c-0.1,0.2-0.4,0.4-0.6,0.4c-0.1,0-0.2,0-0.3-0.1C20.1,37.8,20,37.7,19.9,37.6z M13.7,24.2
					l6.8,11.6l6.6-11.7L13.7,24.2z"/>
			</g>
		</g>
		<g>
			<g>
				<polygon class="st2" points="20.5,35.4 17.5,24.3 13.8,24.3 				"/>
			</g>
		</g>
		<g>
			<polygon class="st3" points="25,24.1 27.1,24.1 21.8,33.6 			"/>
		</g>
	</g>
	<g>
		<g>
			<circle class="st1" cx="20.4" cy="6.8" r="3.7"/>
		</g>
		<g>
			<path class="st2" d="M21.9,4c0,0-4.2,0.8-2.8,5.6c0,0-0.7,0.5-1.1,0c-0.4-0.5-1.3-2.3-1.3-3.5c0.1-1.1,1.5-2.7,2.6-2.9
				C20.4,3.1,21.2,3.3,21.9,4z"/>
		</g>
		<g>
			<path d="M16.2,6.8c0-2.3,1.9-4.2,4.2-4.2c2.3,0,4.2,1.9,4.2,4.2S22.8,11,20.4,11S16.2,9.1,16.2,6.8z M17.3,6.8
				c0,1.8,1.4,3.2,3.2,3.2c1.8,0,3.2-1.4,3.2-3.2s-1.4-3.2-3.2-3.2S17.3,5,17.3,6.8z"/>
		</g>
	</g>
	<g>
		<g>
			<g>
				<rect x="13.8" y="25.2" width="13.3" height="0.9"/>
			</g>
		</g>
	</g>
	<g>
		<g>
			<g>
				<rect x="15.1" y="27.7" width="10.8" height="0.9"/>
			</g>
		</g>
	</g>
	<g>
		<g>
			<g>
				<rect x="16.9" y="30.1" width="7.8" height="0.8"/>
			</g>
		</g>
	</g>
</g>
</svg>
