<?xml version="1.0" encoding="utf-8"?>
<!-- Generator: Adobe Illustrator 24.0.0, SVG Export Plug-In . SVG Version: 6.00 Build 0)  -->
<svg version="1.1" id="Capa_1" xmlns="http://www.w3.org/2000/svg" xmlns:xlink="http://www.w3.org/1999/xlink" x="0px" y="0px"
	 viewBox="0 0 40 40" style="enable-background:new 0 0 40 40;" xml:space="preserve">
<style type="text/css">
	.st0{fill:#FFDD09;}
	.st1{fill:#FBBF00;}
	.st2{fill:#666560;}
	.st3{fill:#FFFFFF;}
</style>
<g>
	<polygon class="st0" points="20,5.9 3.3,33.3 35,32.7 35,30.3 	"/>
	<polygon class="st1" points="20,5.9 12.7,17.9 35,32.7 35,30.3 	"/>
	<g>
		<g>
			<g transform="translate(0 1)">
				<g>
					<path class="st2" d="M22.7,17.6l-3.1,0.6l2-5l-3.6,0.7l-2,7.3l2.6-0.5l-1.4,6.8L22.7,17.6z"/>
				</g>
				<g>
					<path class="st3" d="M18.9,13.7l-0.9,0.2l-2,7.3l0.9-0.2L18.9,13.7z"/>
				</g>
				<g>
					<path d="M21.6,17.8l-4.1,7.4L17,27.5l5.5-9.9L21.6,17.8z"/>
				</g>
				<g>
					<path d="M17.3,27.7c0,0-0.1,0-0.1,0c-0.1,0-0.2-0.2-0.1-0.2l1.3-6.4l-2.3,0.4c-0.1,0-0.2,0-0.2-0.1c-0.1-0.1-0.1-0.1,0-0.2
						l2-7.3c0-0.1,0.1-0.1,0.2-0.1l3.6-0.7c0.1,0,0.2,0,0.2,0.1c0.1,0.1,0.1,0.1,0,0.2L20,17.9l2.6-0.5c0.1,0,0.2,0,0.2,0.1
						s0.1,0.2,0,0.2l-5.5,9.9C17.4,27.6,17.4,27.6,17.3,27.7z M16.3,20.9l2.3-0.4c0.1,0,0.1,0,0.2,0.1c0.1,0.1,0.1,0.1,0.1,0.2
						L17.8,26l4.5-8.1l-2.6,0.5c-0.1,0-0.2,0-0.2-0.1c-0.1-0.1-0.1-0.1,0-0.2l1.8-4.6l-3,0.6L16.3,20.9z"/>
				</g>
			</g>
			<g>
				<polygon class="st2" points="17.1,30.2 20.4,26.8 16.7,25.9 				"/>
				<path d="M17.2,30.4C17.2,30.4,17.1,30.4,17.2,30.4c-0.2,0-0.2-0.1-0.3-0.1l-1.3-4.5c0-0.1,0-0.2,0.1-0.2c0-0.1,0.1-0.1,0.2-0.1
					l4.6,1.1c0.1,0,0.1,0.1,0.2,0.1c0,0.1,0,0.2-0.1,0.2l-3.3,3.4C17.3,30.4,17.2,30.4,17.2,30.4z M16.1,25.9l1.1,3.8l2.8-2.9
					L16.1,25.9z"/>
			</g>
			<g>
				<polygon points="17.3,29.7 18.9,26.7 20,26.9 				"/>
			</g>
		</g>
	</g>
	<path d="M36.5,31.3L21.6,5.5c-0.4-0.8-1-1.2-1.6-1.2c-0.6,0-1.2,0.4-1.7,1.2L3.5,31.2C3.1,32,3,32.8,3.3,33.3
		c0.3,0.5,1,0.8,1.8,0.8h29.6c0.9,0,1.5-0.3,1.8-0.8C37,32.8,36.9,32,36.5,31.3z M32.6,31.9H7.4c-0.9,0-1.3-0.6-0.8-1.4L19.2,8.6
		c0.4-0.8,1.2-0.8,1.6,0l12.6,21.9C33.9,31.3,33.5,31.9,32.6,31.9z"/>
</g>
</svg>
